<?xml version="1.0" encoding="UTF-8"?>
<svg id="Layer_1" xmlns="http://www.w3.org/2000/svg" version="1.1" viewBox="0 0 288 288">
  <!-- Generator: Adobe Illustrator 29.3.1, SVG Export Plug-In . SVG Version: 2.1.0 Build 151)  -->
  <defs>
    <style>
      .st0 {
        fill: none;
      }

      .st1 {
        fill: #000;
      }

      .st2 {
        fill: #fff;
      }

      .st3 {
        fill: #000;
      }
    </style>
  </defs>
  <polygon class="st1" points="248.3 166.4 39.4 191.3 39.7 104.7 248.6 79.8 248.3 166.4"/>
  <g>
    <path class="st1" d="M66.6,195.9s0,.1-.3.1l-6.5.8q0,0,0,.2v5.9q0,.1,0,.1l3.8-.5h.3s0,.2,0,.3v2.4c0,.1,0,.2,0,.3,0,0-.2.1-.3.1l-3.8.5q0,0,0,.2v8.9c0,.1,0,.2,0,.3,0,0,0,.1-.3.1l-2.8.3c-.2,0-.4,0-.4-.3v-21.3c0-.1,0-.2.2-.3,0,0,.2-.1.3-.1l9.7-1.2h.3s0,.2,0,.3v2.4c0,.1,0,.2,0,.3l.2.2Z"/>
    <path class="st1" d="M72.7,213.1c-1-.8-1.6-1.9-1.8-3.5v-11.5c0-1.8.6-3.3,1.6-4.5,1.1-1.2,2.5-1.9,4.2-2.1,1.6-.2,2.9.1,3.9.9,1,.8,1.6,1.9,1.8,3.4v11.6c0,1.8-.6,3.3-1.6,4.5-1.1,1.2-2.5,1.9-4.2,2.1-1.6.2-2.9-.1-3.9-.9ZM78.2,209.9c.4-.5.6-1.2.6-2v-11.3c0-.7-.3-1.2-.7-1.5-.4-.3-.9-.5-1.5-.4-.7,0-1.2.4-1.6.9s-.6,1.2-.6,2v11.4c0,.6.3,1.1.7,1.5.4.3.9.5,1.5.4.7,0,1.2-.4,1.6-.9h0Z"/>
    <path class="st1" d="M95.6,211.1l-2.5-8.7h0l-1.6.2q0,0,0,.2v8.9c0,.1,0,.2,0,.3,0,0,0,.1-.3.1l-2.8.3c-.2,0-.4,0-.4-.3v-21.3c0-.1,0-.2.2-.3,0,0,.2-.1.3-.1l5.6-.7c1.4-.2,2.6.2,3.6,1,1,.9,1.5,2.1,1.7,3.7v1.1c0,1.3-.3,2.5-.8,3.5s-1.2,1.8-2,2.4c0,0,0,0,0,.2l2.9,9.1h0c0,.3,0,.4-.3.5l-2.9.3c-.2,0-.3,0-.4-.3h0ZM91.2,193.2v6.3q0,.1,0,.1l1.9-.2c.8,0,1.4-.5,1.9-1.3s.6-1.8.5-2.9c0-.8-.4-1.4-.8-1.8-.4-.4-1-.6-1.6-.5l-1.8.2q0,0,0,.2h0Z"/>
    <path class="st1" d="M114,208.1c-1-.8-1.6-1.9-1.8-3.4v-11.6c0-1.8.6-3.3,1.6-4.5s2.4-1.9,4.1-2.1c1.5-.2,2.8.1,3.8.9,1,.8,1.6,1.9,1.8,3.4v1.3c0,.1,0,.2,0,.3,0,0-.2.1-.3.2l-2.8.5c-.2,0-.4,0-.4-.3v-1.2c0-.6-.3-1.1-.7-1.4-.4-.3-.9-.4-1.5-.4s-1.2.4-1.5.9c-.4.5-.6,1.1-.6,1.9v11.7c0,.6.3,1.1.7,1.4.4.3.9.4,1.4.4s1.2-.4,1.6-.9.6-1.1.6-1.9v-1.1s.2-.1.3-.1l2.8-.2c.2,0,.4,0,.4.3v.4c0,1.8-.5,3.3-1.6,4.5s-2.4,1.9-4.1,2.1c-1.5.2-2.8-.1-3.8-.9v-.2Z"/>
    <path class="st1" d="M130.3,206.2c-1-.8-1.6-1.9-1.8-3.5v-11.5c0-1.8.6-3.3,1.6-4.5,1.1-1.2,2.5-1.9,4.2-2.1,1.6-.2,2.9.1,3.9.9,1,.8,1.6,1.9,1.8,3.4v11.6c0,1.8-.6,3.3-1.6,4.5-1.1,1.2-2.5,1.9-4.2,2.1-1.6.2-2.9-.1-3.9-.9ZM135.8,203c.4-.5.6-1.2.6-2v-11.3c0-.7-.3-1.2-.7-1.5-.4-.4-.9-.5-1.5-.4-.7,0-1.2.4-1.6.9-.4.5-.6,1.2-.6,2v11.4c0,.6.3,1.1.7,1.5.4.3.9.5,1.5.4.7,0,1.2-.4,1.6-.9h0Z"/>
    <path class="st1" d="M154,182.6s.1-.1.3-.1l2.7-.3h.3c.1,0,.1.1,0,.3v21.3c0,.1,0,.2-.2.3,0,0-.2.1-.3.1l-3.1.4c-.2,0-.3,0-.4-.3l-4.4-12.8h-.1v13.3c0,.1,0,.2-.1.3,0,0-.1.1-.3.1l-2.7.3c-.2,0-.4,0-.4-.3v-21.3c0-.1.1-.2.2-.3s.2-.1.3-.1l3.1-.4c.2,0,.3,0,.4.3l4.5,12.7h0v-13.2c0-.1,0-.2.1-.3h0Z"/>
    <path class="st1" d="M164.5,202.2c-1-.7-1.6-1.8-1.8-3.3v-12c0-1.7.5-3.2,1.6-4.3,1-1.2,2.4-1.8,4.1-2,1.5-.2,2.8.1,3.9.9,1,.8,1.6,1.9,1.8,3.3v2c0,.1,0,.2-.1.3,0,0-.1.1-.3.1l-2.8.3h-.3s-.1-.2,0-.3v-1.7c0-.6-.3-1.1-.7-1.4-.4-.3-.9-.5-1.5-.4-.6,0-1.2.4-1.6.9-.4.5-.6,1.1-.6,1.9v11.6c0,.6.3,1.1.7,1.4.4.3.9.5,1.5.4.7,0,1.2-.4,1.6-.9.4-.5.6-1.1.6-1.9v-3c0-.1,0-.2-.2-.1l-1.8.2h-.3s-.1-.2,0-.3v-2.3c0-.1,0-.2.1-.3,0,0,.1-.1.3-.1l5.1-.6h.3s.1.2,0,.3v5.8c0,1.7-.6,3.2-1.6,4.3-1.1,1.2-2.4,1.8-4.1,2-1.5.2-2.8,0-3.8-.8h0Z"/>
    <path class="st1" d="M187.3,200.2l-2.5-8.7h0l-1.6.2q-.1,0-.1.2v8.9c0,.1,0,.2-.1.3,0,0-.1.1-.3.1l-2.8.3c-.2,0-.4,0-.4-.3v-21.3c0-.1.1-.2.2-.3,0,0,.2-.1.3-.1l5.6-.7c1.4-.2,2.6.2,3.6,1,1,.9,1.5,2.1,1.7,3.7v1.1c0,1.3-.3,2.5-.8,3.5s-1.2,1.8-2,2.4c0,0-.1,0-.1.2l2.9,9.1h0c0,.3,0,.4-.3.5l-2.9.3c-.2,0-.3,0-.4-.3h0ZM182.9,182.3v6.3c0,.1,0,.2.1.1l1.9-.2c.8,0,1.4-.5,1.9-1.3s.6-1.8.5-2.9c0-.8-.4-1.4-.8-1.8s-1-.6-1.6-.5l-1.8.2q-.1,0-.1.2h0Z"/>
    <path class="st1" d="M206.2,179.3s-.1.1-.3.1l-6.5.8q-.1,0-.1.2v5.9c0,.1,0,.2.1.1l3.8-.5h.3s.1.2,0,.3v2.4c0,.1,0,.2-.1.3,0,0-.2.1-.3.1l-3.8.5q-.1,0-.1.2v6q0,.1.1.1l6.5-.8h.3s.1.2,0,.3v2.4c0,.1,0,.2-.1.3,0,0-.1.1-.3.1l-9.8,1.2c-.2,0-.4,0-.4-.3v-21.3c0-.1.1-.2.2-.3,0,0,.2-.1.3-.1l9.8-1.2h.3s.1.2,0,.3v2.4c0,.1,0,.2-.1.3l.2.2Z"/>
    <path class="st1" d="M212.5,196.4c-1-.8-1.6-1.9-1.7-3.3v-1.7c0-.1,0-.2.1-.3,0,0,.1-.1.3-.1l2.7-.3c.2,0,.4,0,.4.3v1.1c0,.7.3,1.2.7,1.6.4.4.8.5,1.4.4.7,0,1.2-.4,1.7-1,.4-.6.6-1.4.5-2.2,0-.6-.3-1.1-.8-1.5-.4-.4-1.2-1-2.4-1.7-.9-.6-1.6-1.1-2.2-1.6-.6-.5-1.1-1-1.5-1.7s-.7-1.4-.8-2.4v-.9c0-1.7.5-3.2,1.5-4.3s2.3-1.8,4-2c1.5-.2,2.8.1,3.7.9,1,.8,1.6,1.9,1.7,3.4v2.1s-.2.1-.3.1l-2.7.3h-.3s-.1-.2,0-.3v-1.3c0-.7-.3-1.2-.7-1.5s-.8-.5-1.4-.4c-.7,0-1.2.4-1.6,1-.4.6-.5,1.3-.4,2.2,0,.6.3,1.1.8,1.6s1.2,1,2.2,1.7c1.1.7,1.9,1.3,2.5,1.8s1.1,1,1.4,1.6c.4.6.6,1.2.7,2v.9c0,1.8-.5,3.3-1.6,4.5-1,1.2-2.4,1.9-4,2.1-1.5.2-2.8-.1-3.7-.9l-.2-.2Z"/>
    <path class="st1" d="M228,194.6c-1-.8-1.6-1.9-1.7-3.3v-1.7c0-.1,0-.2.1-.3,0,0,.1-.1.3-.1l2.7-.3c.2,0,.4,0,.4.3v1.1c0,.7.3,1.2.7,1.6.4.4.8.5,1.4.4.7,0,1.2-.4,1.7-1,.4-.6.6-1.4.5-2.2,0-.6-.3-1.1-.8-1.5-.4-.4-1.2-1-2.4-1.7-.9-.6-1.6-1.1-2.2-1.6-.6-.5-1.1-1-1.5-1.7s-.7-1.4-.8-2.4v-.9c0-1.7.5-3.2,1.5-4.3s2.3-1.8,4-2c1.5-.2,2.8.1,3.7.9,1,.8,1.6,1.9,1.7,3.4v2.1s-.2.1-.3.1l-2.7.3h-.3s-.1-.2,0-.3v-1.3c0-.7-.3-1.2-.7-1.5s-.8-.5-1.4-.4c-.7,0-1.2.4-1.6,1-.4.6-.5,1.3-.4,2.2,0,.6.3,1.1.8,1.6s1.2,1,2.2,1.7c1.1.7,1.9,1.3,2.5,1.8s1.1,1,1.4,1.6c.4.6.6,1.2.7,2v.9c0,1.8-.5,3.3-1.6,4.5-1,1.2-2.4,1.9-4,2.1-1.5.2-2.8-.1-3.7-.9l-.2-.2Z"/>
  </g>
  <g>
    <g>
      <path class="st0" d="M70.3,124.7l-2.7.3c-.3,0-.5.2-.4.6v13.1c1.9-.2,3.4-1.3,4.5-3.1,1.1-1.9,1.4-4.3,1.1-7.4-.2-1.4-.5-2.5-1.1-3.4h-1.4Z"/>
      <path class="st3" d="M64.2,139l2.8-.3h0v-13.1c0-.3.2-.5.5-.6l2.7-.3h1.3c-.2-.4-.5-.7-.8-1-1-1-2.3-1.4-3.8-1.2l-2.7.3c-.3,0-.5.2-.4.6v15.2c0,.3,0,.5.3.5h0Z"/>
      <path class="st3" d="M92.1,126.1c-.7-5.5-2.7-9.8-6.1-12.7-1-.9-2.1-1.6-3.2-2.1,3.3,2.9,5.4,7.2,6,12.7.2,1.6.3,2.8.2,3.7,0,6.4-1.8,11.8-5.1,16.1-3.4,4.3-7.8,6.8-13.3,7.4l-6.3.8c-.3,0-.4.2-.5.6v25.8c0,.3-.2.6-.4.9-.2.3-.5.4-.8.5l-13.8,1.6c-.3,0-.6,0-.8-.2h0l3.5,2.4h.6l13.8-1.6c.3,0,.6-.2.8-.5.2-.3.3-.6.3-.9v-25.8c.2-.4.3-.5.6-.6l6.3-.8c5.5-.7,9.9-3.1,13.3-7.4,3.4-4.3,5.1-9.7,5.1-16.1s0-2.1-.2-3.7h0Z"/>
    </g>
    <g>
      <path class="st3" d="M111.5,126.2c0,.3,0,.4.3.4s.3-.2.3-.4l1.1-5-3.2-14.5c-.2-.6-.5-.9-.8-1l-2.8-1.8c0,.2.2.3.3.6l4.8,21.8h0Z"/>
      <path class="st3" d="M137,102.7c0,0-.2-.2-.4-.3l-2.8-1.9c.1.2.1.6,0,1l-14,44.4v.6l-.2,25c0,.3,0,.6-.3.9-.2.3-.5.4-.9.5l-13.7,1.6c-.3,0-.6,0-.8-.2h0l3.5,2.3h.7l13.7-1.6c.3,0,.6-.2.9-.5.2-.3.3-.6.3-.9l.2-25v-.6l14.1-44.4c.2-.4.1-.8,0-1h-.3Z"/>
    </g>
    <g>
      <path class="st0" d="M156.2,144.6l-1.9-12.4-1.9,13.4,3.3-.4c.3,0,.5-.2.4-.6h0Z"/>
      <path class="st3" d="M179.2,167.1l-13.7-67.1c0-.5-.3-.8-.7-.9l-2.8-1.8c.1,0,.2.3.2.6l13.7,67.1v.3c.1.7-.2,1-.9,1.1l-14.1,1.7c-.4,0-.7,0-.9-.2h0l3.4,2.3h0c.2,0,.5.1.8.1l14.1-1.7c.7,0,1.1-.5,1-1.1v-.3h-.1Z"/>
      <path class="st3" d="M158.2,158c-.1,0-.3-.1-.4-.1l-10.5,1.3c-.4,0-.6.2-.5.6l-1.2,9c-.1.8-.5,1.2-1.3,1.3l-13.8,1.6c-.3,0-.5,0-.7-.1h0l3.3,2.2h0c.2,0,.4.1.7,0l13.8-1.6c.7,0,1.2-.5,1.3-1.3l1.2-9c0-.3.1-.5.5-.6l8.1-1-.3-2c0-.1,0-.3-.1-.3h-.1Z"/>
      <path class="st3" d="M152.7,121.8c0-.3-.1-.4-.2-.4s-.3.2-.4.4l-3.3,23.6c0,.3.2.5.4.5l3.2-.4,1.9-13.4-1.6-10.4h0Z"/>
    </g>
    <g>
      <path class="st3" d="M186.5,108.2l-11.6,1.4c-.3,0-.6,0-.8-.3h0l3.4,2.4h0c.2,0,.5.2.8.2l8.8-1v-2.1c0-.3-.2-.5-.5-.5h0Z"/>
      <path class="st3" d="M220.1,93.6c0-.3,0-.6-.3-.8-.1,0-.3-.2-.4-.2l-2.7-1.8c.1.2.2.4.2.6v12c0,.3-.1.6-.3.9s-.5.4-.8.5l-12.1,1.4c-.3,0-.5.2-.4.6l-.3,55c0,.3,0,.6-.3.9-.2.3-.5.4-.9.5l-13.7,1.6c-.4,0-.7,0-.9-.2h0l3.4,2.3h0c.2,0,.4.1.7,0l13.7-1.6c.3,0,.6-.2.9-.5.2-.3.3-.6.3-.9l.3-55c0-.3.1-.5.4-.6l12.1-1.4c.3,0,.6-.2.8-.5s.3-.6.3-.9v-12h0Z"/>
    </g>
    <g>
      <path class="st3" d="M241.4,90.2c-.1,0-.3-.2-.5-.2l-2.7-1.9c.2.2.3.4.2.7l-.2,68.7c0,.3-.1.6-.3.9-.2.3-.5.4-.8.5l-13.8,1.6c-.3,0-.6,0-.8-.2h0l3.6,2.4h.5l13.8-1.6c.3,0,.6-.2.8-.5s.3-.6.3-.9l.2-68.7c0-.3,0-.6-.3-.8Z"/>
      <g>
        <path class="st2" d="M82.8,111.3h0c-3.4-2.9-7.6-4.1-12.7-3.5l-21,2.5c-.3,0-.6.2-.8.5s-.3.6-.3.9l-.2,68.7c0,.3,0,.6.3.8h0c.2.2.5.3.8.2l13.8-1.6c.3,0,.6-.2.8-.5s.3-.6.3-.9v-25.8c.2-.4.3-.5.6-.6l6.3-.8c5.5-.7,9.9-3.1,13.3-7.4,3.4-4.3,5.1-9.7,5.1-16.1s0-2.1-.2-3.7c-.7-5.5-2.7-9.7-6-12.7h-.1ZM64.2,139c-.3,0-.4-.1-.5-.5v-15.2c0-.3.2-.5.6-.6l2.7-.3c1.5-.2,2.8.2,3.8,1.2s.6.6.8,1c.5.9.9,2,1.1,3.4.4,3.1,0,5.5-1.1,7.4-1.1,1.8-2.6,2.9-4.6,3.1h0l-2.8.3v.2Z"/>
        <path class="st2" d="M133.8,100.5h0c-.2-.2-.4-.4-.8-.3l-14.6,1.7c-.6,0-1,.5-1.3,1.3l-3.8,17.9-1.1,5c0,.3,0,.4-.3.4s-.3,0-.3-.4l-4.8-21.8c0-.3-.2-.5-.3-.6-.2-.3-.5-.4-.9-.4l-14.5,1.7c-.7,0-1.1.5-1,1.1v.4l13.5,41.1.2.6-.2,25c0,.4.2.7.4.9.2.2.5.2.8.2l13.7-1.6c.3,0,.6-.2.9-.5.2-.3.3-.6.3-.9l.2-25v-.6l14.1-44.4c.1-.4.1-.7,0-1l-.2.2Z"/>
        <path class="st2" d="M162.2,97.8c0-.2-.1-.4-.2-.6-.2-.3-.6-.5-1.1-.4l-15.8,1.9c-.7,0-1.2.5-1.3,1.3l-14.3,70.4c-.1.6,0,.9.3,1.1.2,0,.4.1.7.1l13.8-1.6c.7,0,1.2-.5,1.3-1.3l1.2-9c0-.3.1-.5.5-.6l10.5-1.3c.1,0,.3,0,.4.1.1,0,.2.2.1.3l.3,2,.9,6.7c0,.4.2.6.4.8s.5.2.9.2l14.1-1.7c.7,0,1.1-.5,1-1.1v-.3l-13.7-67.1h0ZM148.9,145.4l3.3-23.6c.1-.3.2-.4.4-.4s.2,0,.2.4l1.6,10.4,1.9,12.4c0,.3-.1.5-.4.6l-3.3.4-3.2.4c-.2,0-.3-.1-.4-.5h-.1Z"/>
        <path class="st2" d="M216.7,90.8s0,0-.1-.2c-.2-.2-.5-.3-.8-.3l-40.7,4.8c-.3,0-.6.2-.9.5-.2.3-.4.6-.4.9v12c0,.3,0,.5.2.7h0c.2.2.5.3.8.3l11.6-1.4c.3,0,.4,0,.5.5v2.1l-.3,52.9c0,.4.2.7.4.9s.5.3.9.2l13.7-1.6c.3,0,.6-.2.9-.5.2-.3.3-.6.3-.9l.3-55c0-.3.1-.5.4-.6l12.1-1.4c.3,0,.6-.2.8-.5s.3-.6.3-.9v-12c0-.2,0-.5-.2-.6h.2Z"/>
        <path class="st2" d="M238.1,88.1h0c-.2-.2-.5-.3-.8-.3l-13.8,1.6c-.3,0-.6.2-.8.5s-.3.6-.3.9l-.2,68.7c0,.3,0,.6.3.8h0c.2.2.5.3.8.2l13.8-1.6c.3,0,.6-.2.8-.5s.3-.6.3-.9l.2-68.7c0-.3,0-.5-.2-.7h-.1Z"/>
      </g>
    </g>
  </g>
</svg>