<svg xmlns="http://www.w3.org/2000/svg" viewBox="-50 -1090 4072 1373">
  <g transform="scale(1, -1)" fill="currentColor">
    <path transform="translate(0, 0)" d="M218 -10H260C374 -10 462 47 462 158V206C462 281 430 325 350 356L307 371C251 393 240 403 240 432C240 463 257 481 306 481C331 481 364 478 397 470C425 464 442 476 442 504V576C442 600 430 615 406 619C369 626 333 628 297 628H246C113 628 32 576 32 458V413C32 345 58 298 139 266L186 249C237 228 258 213 258 182C258 150 237 138 194 138C160 138 116 143 78 153C50 160 33 150 33 121V46C33 22 44 6 68 2C111 -6 163 -10 218 -10Z"/><path transform="translate(491, 0)" d="M251 628H228C97 628 29 532 29 353V261C29 86 101 -11 224 -11H248C351 -11 362 50 392 50C413 50 420 34 420 -2V-160C420 -186 434 -200 460 -200H586C612 -200 626 -186 626 -160V578C626 604 612 618 586 618H468C442 618 428 605 428 583C428 567 421 558 409 558C379 558 353 628 251 628ZM327 477H329C388 477 423 426 423 332V287C423 191 388 142 329 142H327C268 142 235 186 235 286V331C235 430 268 477 327 477Z"/><path transform="translate(1167, 0)" d="M564 618H438C412 618 398 604 398 578V257C398 193 359 158 313 158C267 158 250 186 250 245V578C250 604 236 618 210 618H84C58 618 44 604 44 578V153C44 39 96 -10 181 -10H236C340 -10 374 68 410 68C422 68 428 61 428 44V40C428 14 442 0 468 0H564C590 0 604 14 604 40V578C604 604 590 618 564 618Z"/><path transform="translate(1820, 0)" d="M181 -8C289 -8 323 48 356 48C366 48 373 42 377 31C385 11 394 0 418 0H533C559 0 573 14 573 40V362C573 557 494 628 276 628C225 628 148 618 82 601C59 595 48 579 48 556V474C48 445 66 433 94 442C154 461 218 473 270 473C327 473 357 460 357 419C357 398 345 388 314 383C278 377 179 365 124 350C40 326 16 269 16 204V154C16 54 72 -8 181 -8ZM272 129C229 129 209 149 209 189C209 216 218 233 242 245C269 258 322 268 336 268C357 268 365 256 366 237V203C366 157 313 129 272 129Z"/><path transform="translate(2429, 0)" d="M89 0H215C241 0 255 14 255 40V350C255 393 273 422 308 430C332 435 366 434 404 433C431 432 445 446 445 472V583C445 609 431 623 405 623H390C292 623 278 548 242 548C230 548 224 556 224 571V578C224 604 210 618 184 618H89C63 618 49 604 49 578V40C49 14 63 0 89 0Z"/><path transform="translate(2888, 0)" d="M319 -10C396 -10 471 -2 527 15C544 21 551 35 551 58V141C551 170 534 182 505 173C448 156 387 148 335 148C266 148 232 170 232 218C232 244 249 252 267 252H434C532 252 572 305 572 407V430C572 532 504 628 354 628H295C125 628 22 517 22 338V263C22 62 151 -10 319 -10ZM341 380H268C240 380 227 388 227 416C227 462 259 499 317 499C369 499 395 466 395 427V419C395 385 371 380 341 380Z"/><path transform="translate(3481, 0)" d="M218 -10H260C374 -10 462 47 462 158V206C462 281 430 325 350 356L307 371C251 393 240 403 240 432C240 463 257 481 306 481C331 481 364 478 397 470C425 464 442 476 442 504V576C442 600 430 615 406 619C369 626 333 628 297 628H246C113 628 32 576 32 458V413C32 345 58 298 139 266L186 249C237 228 258 213 258 182C258 150 237 138 194 138C160 138 116 143 78 153C50 160 33 150 33 121V46C33 22 44 6 68 2C111 -6 163 -10 218 -10Z"/>
  </g>
</svg>