<svg width="1200" height="630" viewBox="0 0 1200 630" fill="none" xmlns="http://www.w3.org/2000/svg">
<path d="M343.275 284.54H312.307C301.731 284.54 293.862 282.424 288.7 278.194C283.624 273.963 281.085 267.448 281.085 258.648V219.177C281.085 210.377 283.624 203.862 288.7 199.631C293.862 195.316 301.731 193.159 312.307 193.159H343.275C344.883 193.159 346.025 193.539 346.702 194.301C347.463 194.978 347.844 196.12 347.844 197.728V213.085C347.844 214.692 347.463 215.877 346.702 216.638C346.025 217.315 344.883 217.654 343.275 217.654H317.765C315.142 217.654 313.196 218.204 311.926 219.304C310.657 220.319 310.023 221.884 310.023 224V254.206C310.023 256.321 310.657 257.887 311.926 258.902C313.196 259.833 315.142 260.298 317.765 260.298H343.275C344.883 260.298 346.025 260.679 346.702 261.441C347.463 262.117 347.844 263.26 347.844 264.867V279.971C347.844 281.578 347.463 282.763 346.702 283.524C346.025 284.201 344.883 284.54 343.275 284.54Z" fill="#FF0C48"/>
<path d="M438.977 260.552C438.977 264.444 438.385 267.998 437.2 271.213C436.1 274.344 434.07 277.051 431.108 279.336C428.232 281.536 424.213 283.27 419.051 284.54C413.974 285.809 407.502 286.443 399.633 286.443C391.764 286.443 385.249 285.809 380.087 284.54C374.926 283.27 370.865 281.536 367.903 279.336C365.026 277.051 362.996 274.344 361.811 271.213C360.711 267.998 360.161 264.444 360.161 260.552V217.273C360.161 213.381 360.711 209.87 361.811 206.739C362.996 203.524 365.026 200.774 367.903 198.489C370.865 196.205 374.926 194.428 380.087 193.159C385.249 191.889 391.764 191.255 399.633 191.255C407.502 191.255 413.974 191.889 419.051 193.159C424.213 194.428 428.232 196.205 431.108 198.489C434.07 200.774 436.1 203.524 437.2 206.739C438.385 209.87 438.977 213.381 438.977 217.273V260.552ZM388.972 255.983C388.972 257.675 389.606 259.114 390.875 260.298C392.145 261.398 395.064 261.948 399.633 261.948C404.202 261.948 407.121 261.398 408.39 260.298C409.659 259.114 410.294 257.675 410.294 255.983V221.842C410.294 220.234 409.659 218.881 408.39 217.781C407.121 216.596 404.202 216.004 399.633 216.004C395.064 216.004 392.145 216.596 390.875 217.781C389.606 218.881 388.972 220.234 388.972 221.842V255.983Z" fill="#FF0C48"/>
<path d="M478.614 284.54H459.704C458.096 284.54 456.911 284.201 456.15 283.524C455.473 282.763 455.135 281.578 455.135 279.971V197.728C455.135 196.12 455.473 194.978 456.15 194.301C456.911 193.539 458.096 193.159 459.704 193.159H480.137C481.491 193.159 482.591 193.455 483.437 194.047C484.368 194.639 485.214 195.612 485.976 196.966L497.398 217.654C497.821 218.415 498.16 218.965 498.414 219.304C498.752 219.642 499.175 219.811 499.683 219.811H500.825C501.333 219.811 501.713 219.642 501.967 219.304C502.306 218.965 502.686 218.415 503.11 217.654L514.405 196.966C515.167 195.612 515.971 194.639 516.817 194.047C517.747 193.455 518.89 193.159 520.243 193.159H540.804C542.412 193.159 543.554 193.539 544.231 194.301C544.992 194.978 545.373 196.12 545.373 197.728V279.971C545.373 281.578 544.992 282.763 544.231 283.524C543.554 284.201 542.412 284.54 540.804 284.54H521.259C519.651 284.54 518.467 284.201 517.705 283.524C517.028 282.763 516.69 281.578 516.69 279.971V235.295L509.202 249.129C508.44 250.568 507.509 251.626 506.409 252.302C505.394 252.895 504.083 253.191 502.475 253.191H497.398C495.791 253.191 494.437 252.895 493.337 252.302C492.322 251.626 491.433 250.568 490.672 249.129L483.183 235.295V279.971C483.183 281.578 482.803 282.763 482.041 283.524C481.364 284.201 480.222 284.54 478.614 284.54Z" fill="#FF0C48"/>
<path d="M587.083 284.54H567.41C565.803 284.54 564.618 284.201 563.857 283.524C563.18 282.763 562.841 281.578 562.841 279.971V197.728C562.841 196.12 563.18 194.978 563.857 194.301C564.618 193.539 565.803 193.159 567.41 193.159H606.247C617.754 193.159 625.623 195.443 629.854 200.012C634.085 204.581 636.2 210.546 636.2 217.908V234.153C636.2 241.514 634.085 247.48 629.854 252.049C625.623 256.618 617.754 258.902 606.247 258.902H591.652V279.971C591.652 281.578 591.271 282.763 590.509 283.524C589.833 284.201 588.69 284.54 587.083 284.54ZM591.398 216.892V236.057H602.82C605.274 236.057 606.882 235.422 607.643 234.153C608.405 232.884 608.786 231.446 608.786 229.838V223.111C608.786 221.504 608.405 220.065 607.643 218.796C606.882 217.527 605.274 216.892 602.82 216.892H591.398Z" fill="#FF0C48"/>
<path d="M718.524 284.54H653.923C652.315 284.54 651.131 284.201 650.369 283.524C649.692 282.763 649.354 281.578 649.354 279.971V197.728C649.354 196.12 649.692 194.978 650.369 194.301C651.131 193.539 652.315 193.159 653.923 193.159H673.595C675.203 193.159 676.345 193.539 677.022 194.301C677.783 194.978 678.164 196.12 678.164 197.728V260.552H695.552V239.991C695.552 238.384 695.89 237.241 696.567 236.565C697.329 235.803 698.513 235.422 700.121 235.422H718.524C720.132 235.422 721.274 235.803 721.951 236.565C722.712 237.241 723.093 238.384 723.093 239.991V279.971C723.093 281.578 722.712 282.763 721.951 283.524C721.274 284.201 720.132 284.54 718.524 284.54Z" fill="#FF0C48"/>
<path d="M740.14 284.54C738.532 284.54 737.348 284.201 736.586 283.524C735.909 282.763 735.571 281.578 735.571 279.971V264.867C735.571 263.26 735.909 262.117 736.586 261.441C737.348 260.679 738.532 260.298 740.14 260.298H752.705V217.654H740.14C738.532 217.654 737.348 217.315 736.586 216.638C735.909 215.877 735.571 214.692 735.571 213.085V197.728C735.571 196.12 735.909 194.978 736.586 194.301C737.348 193.539 738.532 193.159 740.14 193.159H794.207C795.814 193.159 796.957 193.539 797.634 194.301C798.395 194.978 798.776 196.12 798.776 197.728V213.085C798.776 214.692 798.395 215.877 797.634 216.638C796.957 217.315 795.814 217.654 794.207 217.654H781.896V260.298H794.207C795.814 260.298 796.957 260.679 797.634 261.441C798.395 262.117 798.776 263.26 798.776 264.867V279.971C798.776 281.578 798.395 282.763 797.634 283.524C796.957 284.201 795.814 284.54 794.207 284.54H740.14Z" fill="#FF0C48"/>
<path d="M875.24 284.54H844.272C833.695 284.54 825.827 282.424 820.665 278.194C815.589 273.963 813.05 267.448 813.05 258.648V219.177C813.05 210.377 815.589 203.862 820.665 199.631C825.827 195.316 833.695 193.159 844.272 193.159H875.24C876.848 193.159 877.99 193.539 878.667 194.301C879.428 194.978 879.809 196.12 879.809 197.728V213.085C879.809 214.692 879.428 215.877 878.667 216.638C877.99 217.315 876.848 217.654 875.24 217.654H849.729C847.106 217.654 845.16 218.204 843.891 219.304C842.622 220.319 841.987 221.884 841.987 224V254.206C841.987 256.321 842.622 257.887 843.891 258.902C845.16 259.833 847.106 260.298 849.729 260.298H875.24C876.848 260.298 877.99 260.679 878.667 261.441C879.428 262.117 879.809 263.26 879.809 264.867V279.971C879.809 281.578 879.428 282.763 878.667 283.524C877.99 284.201 876.848 284.54 875.24 284.54Z" fill="#FF0C48"/>
<path d="M896.68 284.54C895.073 284.54 893.888 284.201 893.126 283.524C892.45 282.763 892.111 281.578 892.111 279.971V264.867C892.111 263.26 892.45 262.117 893.126 261.441C893.888 260.679 895.073 260.298 896.68 260.298H909.245V217.654H896.68C895.073 217.654 893.888 217.315 893.126 216.638C892.45 215.877 892.111 214.692 892.111 213.085V197.728C892.111 196.12 892.45 194.978 893.126 194.301C893.888 193.539 895.073 193.159 896.68 193.159H950.747C952.355 193.159 953.497 193.539 954.174 194.301C954.936 194.978 955.316 196.12 955.316 197.728V213.085C955.316 214.692 954.936 215.877 954.174 216.638C953.497 217.315 952.355 217.654 950.747 217.654H938.436V260.298H950.747C952.355 260.298 953.497 260.679 954.174 261.441C954.936 262.117 955.316 263.26 955.316 264.867V279.971C955.316 281.578 954.936 282.763 954.174 283.524C953.497 284.201 952.355 284.54 950.747 284.54H896.68Z" fill="#FF0C48"/>
<path d="M1014.14 284.54H993.578C991.97 284.54 990.786 284.201 990.024 283.524C989.347 282.763 989.009 281.578 989.009 279.971V217.654H970.352C968.744 217.654 967.56 217.315 966.798 216.638C966.122 215.877 965.783 214.692 965.783 213.085V197.728C965.783 196.12 966.122 194.978 966.798 194.301C967.56 193.539 968.744 193.159 970.352 193.159H1037.36C1038.97 193.159 1040.11 193.539 1040.79 194.301C1041.55 194.978 1041.93 196.12 1041.93 197.728V213.085C1041.93 214.692 1041.55 215.877 1040.79 216.638C1040.11 217.315 1038.97 217.654 1037.36 217.654H1018.71V279.971C1018.71 281.578 1018.33 282.763 1017.57 283.524C1016.89 284.201 1015.75 284.54 1014.14 284.54Z" fill="#FF0C48"/>
<path d="M1100.6 284.54H1080.04C1078.43 284.54 1077.25 284.201 1076.49 283.524C1075.81 282.763 1075.47 281.578 1075.47 279.971V263.725L1056.05 237.707C1054.11 235.084 1052.8 232.799 1052.12 230.853C1051.53 228.907 1051.23 225.988 1051.23 222.096V197.728C1051.23 196.12 1051.57 194.978 1052.25 194.301C1053.01 193.539 1054.19 193.159 1055.8 193.159H1075.35C1076.95 193.159 1078.09 193.539 1078.77 194.301C1079.53 194.978 1079.91 196.12 1079.91 197.728V218.542C1079.91 219.388 1079.96 220.277 1080.04 221.208C1080.13 222.138 1080.46 223.027 1081.06 223.873L1086.89 233.011C1087.32 233.772 1087.74 234.322 1088.16 234.661C1088.67 234.999 1089.26 235.168 1089.94 235.168H1091.21C1091.89 235.168 1092.44 234.999 1092.86 234.661C1093.37 234.322 1093.83 233.772 1094.26 233.011L1100.09 223.873C1100.69 223.027 1101.02 222.138 1101.11 221.208C1101.19 220.277 1101.24 219.388 1101.24 218.542V197.728C1101.24 196.12 1101.57 194.978 1102.25 194.301C1103.01 193.539 1104.2 193.159 1105.81 193.159H1124.72C1126.32 193.159 1127.47 193.539 1128.14 194.301C1128.9 194.978 1129.29 196.12 1129.29 197.728V222.096C1129.29 225.988 1128.95 228.907 1128.27 230.853C1127.59 232.799 1126.32 235.084 1124.46 237.707L1105.17 263.852V279.971C1105.17 281.578 1104.79 282.763 1104.03 283.524C1103.35 284.201 1102.21 284.54 1100.6 284.54Z" fill="#FF0C48"/>
<path d="M306.088 436.841H287.051C285.443 436.841 284.258 436.503 283.497 435.826C282.82 435.064 282.481 433.88 282.481 432.272V350.029C282.481 348.422 282.82 347.279 283.497 346.602C284.258 345.841 285.443 345.46 287.051 345.46H300.25C301.858 345.46 303.211 345.714 304.311 346.222C305.496 346.729 306.638 347.618 307.738 348.887L332.36 377.063V350.029C332.36 348.422 332.699 347.279 333.376 346.602C334.137 345.841 335.322 345.46 336.929 345.46H355.967C357.575 345.46 358.717 345.841 359.394 346.602C360.155 347.279 360.536 348.422 360.536 350.029V432.272C360.536 433.88 360.155 435.064 359.394 435.826C358.717 436.503 357.575 436.841 355.967 436.841H336.929C335.322 436.841 334.137 436.503 333.376 435.826C332.699 435.064 332.36 433.88 332.36 432.272V416.661L310.657 390.389V432.272C310.657 433.88 310.277 435.064 309.515 435.826C308.838 436.503 307.696 436.841 306.088 436.841Z" fill="#FF0C48"/>
<path d="M411.167 372.113L405.202 391.405H425.128L419.163 372.113C418.825 371.351 418.444 370.802 418.021 370.463C417.682 370.125 417.259 369.955 416.752 369.955H413.579C413.071 369.955 412.606 370.125 412.183 370.463C411.844 370.802 411.506 371.351 411.167 372.113ZM403.933 432.272C403.933 433.88 403.552 435.064 402.791 435.826C402.114 436.503 400.972 436.841 399.364 436.841H380.707C379.099 436.841 377.915 436.503 377.153 435.826C376.476 435.064 376.138 433.88 376.138 432.272V398.766C376.138 396.227 376.519 393.308 377.28 390.008C378.126 386.709 379.396 382.859 381.088 378.459L392.13 349.648C392.637 348.21 393.399 347.152 394.414 346.476C395.514 345.799 396.91 345.46 398.603 345.46H432.743C434.351 345.46 435.663 345.799 436.678 346.476C437.778 347.152 438.582 348.21 439.089 349.648L450.131 378.459C451.823 382.859 453.05 386.709 453.812 390.008C454.658 393.308 455.081 396.227 455.081 398.766V432.272C455.081 433.88 454.7 435.064 453.939 435.826C453.262 436.503 452.12 436.841 450.512 436.841H431.347C429.655 436.841 428.386 436.503 427.54 435.826C426.778 435.064 426.398 433.88 426.398 432.272V414.504H403.933V432.272Z" fill="#FF0C48"/>
<path d="M523.579 436.841H490.58C488.973 436.841 487.619 436.545 486.519 435.953C485.504 435.36 484.7 434.26 484.108 432.653L471.67 401.558C470.908 399.696 470.273 398.089 469.766 396.735C469.258 395.297 468.835 393.943 468.497 392.674C468.158 391.405 467.904 390.093 467.735 388.739C467.65 387.301 467.608 385.566 467.608 383.536V350.029C467.608 348.422 467.947 347.279 468.624 346.602C469.385 345.841 470.57 345.46 472.177 345.46H492.357C493.965 345.46 495.192 345.841 496.038 346.602C496.884 347.279 497.307 348.422 497.307 350.029V385.059C497.307 385.905 497.392 386.751 497.561 387.597C497.73 388.443 497.984 389.332 498.322 390.262L504.287 408.031C504.541 408.877 504.837 409.469 505.176 409.808C505.514 410.061 506.022 410.188 506.699 410.188H508.095C508.772 410.188 509.28 410.061 509.618 409.808C509.956 409.469 510.253 408.877 510.507 408.031L516.472 390.135C516.81 389.205 517.064 388.316 517.233 387.47C517.402 386.624 517.487 385.778 517.487 384.932V350.029C517.487 348.422 517.825 347.279 518.502 346.602C519.264 345.841 520.448 345.46 522.056 345.46H541.982C543.59 345.46 544.732 345.841 545.409 346.602C546.17 347.279 546.551 348.422 546.551 350.029V383.536C546.551 385.566 546.467 387.301 546.297 388.739C546.213 390.093 546.001 391.405 545.663 392.674C545.324 393.943 544.901 395.297 544.394 396.735C543.886 398.089 543.251 399.696 542.49 401.558L530.052 432.653C529.46 434.26 528.613 435.36 527.513 435.953C526.498 436.545 525.187 436.841 523.579 436.841Z" fill="#FF0C48"/>
<path d="M564.76 436.841C563.152 436.841 561.968 436.503 561.206 435.826C560.529 435.064 560.191 433.88 560.191 432.272V417.169C560.191 415.561 560.529 414.419 561.206 413.742C561.968 412.981 563.152 412.6 564.76 412.6H577.325V369.955H564.76C563.152 369.955 561.968 369.617 561.206 368.94C560.529 368.179 560.191 366.994 560.191 365.386V350.029C560.191 348.422 560.529 347.279 561.206 346.602C561.968 345.841 563.152 345.46 564.76 345.46H618.827C620.435 345.46 621.577 345.841 622.254 346.602C623.015 347.279 623.396 348.422 623.396 350.029V365.386C623.396 366.994 623.015 368.179 622.254 368.94C621.577 369.617 620.435 369.955 618.827 369.955H606.516V412.6H618.827C620.435 412.6 621.577 412.981 622.254 413.742C623.015 414.419 623.396 415.561 623.396 417.169V432.272C623.396 433.88 623.015 435.064 622.254 435.826C621.577 436.503 620.435 436.841 618.827 436.841H564.76Z" fill="#FF0C48"/>
<path d="M708.871 436.841H668.892C658.316 436.841 650.447 434.726 645.285 430.495C640.209 426.265 637.67 419.75 637.67 410.95V371.351C637.67 362.552 640.209 356.037 645.285 351.806C650.447 347.576 658.316 345.46 668.892 345.46H700.622C702.229 345.46 703.372 345.841 704.048 346.602C704.81 347.279 705.191 348.422 705.191 350.029V365.386C705.191 366.994 704.81 368.179 704.048 368.94C703.372 369.617 702.229 369.955 700.622 369.955H674.223C671.6 369.955 669.654 370.505 668.385 371.605C667.115 372.621 666.481 374.186 666.481 376.301V406.635C666.481 408.75 666.946 410.315 667.877 411.331C668.892 412.346 670.373 412.854 672.319 412.854H684.63V393.054C684.63 391.447 684.968 390.305 685.645 389.628C686.407 388.866 687.591 388.485 689.199 388.485H708.871C710.479 388.485 711.621 388.866 712.298 389.628C713.06 390.305 713.44 391.447 713.44 393.054V432.272C713.44 433.88 713.06 435.064 712.298 435.826C711.621 436.503 710.479 436.841 708.871 436.841Z" fill="#FF0C48"/>
<path d="M762.051 372.113L756.086 391.405H776.012L770.047 372.113C769.708 371.351 769.328 370.802 768.904 370.463C768.566 370.125 768.143 369.955 767.635 369.955H764.462C763.955 369.955 763.489 370.125 763.066 370.463C762.728 370.802 762.389 371.351 762.051 372.113ZM754.817 432.272C754.817 433.88 754.436 435.064 753.674 435.826C752.997 436.503 751.855 436.841 750.248 436.841H731.591C729.983 436.841 728.798 436.503 728.037 435.826C727.36 435.064 727.022 433.88 727.022 432.272V398.766C727.022 396.227 727.402 393.308 728.164 390.008C729.01 386.709 730.279 382.859 731.971 378.459L743.013 349.648C743.521 348.21 744.282 347.152 745.298 346.476C746.398 345.799 747.794 345.46 749.486 345.46H783.627C785.235 345.46 786.546 345.799 787.561 346.476C788.661 347.152 789.465 348.21 789.973 349.648L801.015 378.459C802.707 382.859 803.934 386.709 804.695 390.008C805.541 393.308 805.965 396.227 805.965 398.766V432.272C805.965 433.88 805.584 435.064 804.822 435.826C804.145 436.503 803.003 436.841 801.396 436.841H782.231C780.539 436.841 779.269 436.503 778.423 435.826C777.662 435.064 777.281 433.88 777.281 432.272V414.504H754.817V432.272Z" fill="#FF0C48"/>
<path d="M859.705 436.841H839.145C837.537 436.841 836.353 436.503 835.591 435.826C834.914 435.064 834.576 433.88 834.576 432.272V369.955H815.919C814.311 369.955 813.126 369.617 812.365 368.94C811.688 368.179 811.35 366.994 811.35 365.386V350.029C811.35 348.422 811.688 347.279 812.365 346.602C813.126 345.841 814.311 345.46 815.919 345.46H882.931C884.539 345.46 885.681 345.841 886.358 346.602C887.12 347.279 887.5 348.422 887.5 350.029V365.386C887.5 366.994 887.12 368.179 886.358 368.94C885.681 369.617 884.539 369.955 882.931 369.955H864.274V432.272C864.274 433.88 863.894 435.064 863.132 435.826C862.455 436.503 861.313 436.841 859.705 436.841Z" fill="#FF0C48"/>
<path d="M976.643 412.854C976.643 416.746 976.051 420.3 974.867 423.515C973.767 426.645 971.736 429.353 968.775 431.638C965.898 433.837 961.879 435.572 956.717 436.841C951.641 438.11 945.168 438.745 937.299 438.745C929.43 438.745 922.915 438.11 917.754 436.841C912.592 435.572 908.531 433.837 905.569 431.638C902.693 429.353 900.662 426.645 899.477 423.515C898.377 420.3 897.827 416.746 897.827 412.854V369.575C897.827 365.682 898.377 362.171 899.477 359.04C900.662 355.825 902.693 353.075 905.569 350.791C908.531 348.506 912.592 346.729 917.754 345.46C922.915 344.191 929.43 343.556 937.299 343.556C945.168 343.556 951.641 344.191 956.717 345.46C961.879 346.729 965.898 348.506 968.775 350.791C971.736 353.075 973.767 355.825 974.867 359.04C976.051 362.171 976.643 365.682 976.643 369.575V412.854ZM926.638 408.285C926.638 409.977 927.272 411.415 928.542 412.6C929.811 413.7 932.73 414.25 937.299 414.25C941.868 414.25 944.787 413.7 946.056 412.6C947.325 411.415 947.96 409.977 947.96 408.285V374.144C947.96 372.536 947.325 371.182 946.056 370.082C944.787 368.898 941.868 368.305 937.299 368.305C932.73 368.305 929.811 368.898 928.542 370.082C927.272 371.182 926.638 372.536 926.638 374.144V408.285Z" fill="#FF0C48"/>
<path d="M1021.48 368.305V384.551H1031C1033.2 384.551 1034.68 384.001 1035.45 382.901C1036.21 381.716 1036.59 380.278 1036.59 378.586V374.271C1036.59 372.578 1036.21 371.182 1035.45 370.082C1034.68 368.898 1033.2 368.305 1031 368.305H1021.48ZM1016.92 436.841H997.37C995.762 436.841 994.578 436.503 993.816 435.826C993.139 435.064 992.801 433.88 992.801 432.272V350.029C992.801 348.422 993.139 347.279 993.816 346.602C994.578 345.841 995.762 345.46 997.37 345.46H1039.63C1049.11 345.46 1055.63 347.449 1059.18 351.425C1062.82 355.318 1064.64 360.394 1064.64 366.656V372.494C1064.64 376.047 1064.09 379.093 1062.99 381.632C1061.97 384.086 1060.15 385.862 1057.53 386.962C1062.1 387.47 1065.78 389.332 1068.57 392.547C1071.45 395.762 1072.89 400.035 1072.89 405.365V432.272C1072.89 433.88 1072.51 435.064 1071.74 435.826C1071.07 436.503 1069.92 436.841 1068.32 436.841H1048.64C1047.04 436.841 1045.85 436.503 1045.09 435.826C1044.41 435.064 1044.08 433.88 1044.08 432.272V412.854C1044.08 410.992 1043.69 409.638 1042.93 408.792C1042.26 407.862 1041.03 407.396 1039.25 407.396H1021.48V432.272C1021.48 433.88 1021.1 435.064 1020.34 435.826C1019.67 436.503 1018.52 436.841 1016.92 436.841Z" fill="#FF0C48"/>
<path d="M186.343 193.951C174.366 196.582 165.731 207.353 165.731 219.671C165.731 228.182 169.878 236.291 176.625 240.933C181.67 244.43 185.26 245.638 191.11 245.885C196.031 246.102 199.157 245.421 203.644 243.192C211.413 239.324 216.674 232.174 218.036 223.694C220.079 210.695 211.846 197.913 199.157 194.292C195.752 193.332 189.964 193.178 186.343 193.951Z" fill="black"/>
<path d="M159.479 242.573C154.187 243.471 149.42 246.009 145.242 250.125C141.033 254.303 138.526 259.163 135.74 268.571C130.077 287.76 126.982 306.547 125.465 331.245C124.908 340.096 125.187 344.089 128.746 382.931C129.519 391.256 130.138 398.499 130.138 399.025V399.984L127.446 400.046C95.0723 400.758 83.7138 401.129 82.0425 401.532C75.3573 403.234 70.7148 409.207 70.7148 416.078C70.7148 422.454 74.3669 427.684 80.5569 430.191L82.321 430.903L115.994 430.996C152.794 431.089 151.37 431.151 155.022 429.294C157.22 428.179 160.346 425.084 161.429 422.918C163.038 419.73 163.224 418.461 163.564 405.988C164.369 375.936 164.524 370.891 164.586 370.829C164.74 370.675 198.569 368.446 198.692 368.601C198.723 368.632 199.002 379.681 199.28 393.144C199.837 419.699 199.837 419.947 201.664 423.32C203.521 426.818 207.42 429.727 211.475 430.624C219.243 432.358 226.64 428.21 229.023 420.751L229.797 418.337V384.231C229.797 346.843 229.89 348.762 227.909 344.77C226.238 341.334 222.214 338.023 218.5 337.001C217.293 336.661 214.043 336.413 192.502 335.113C186.715 334.742 181.794 334.402 181.608 334.34C181.391 334.278 181.268 334.03 181.36 333.813C181.422 333.597 181.794 330.749 182.134 327.531C183.125 318.555 184.734 305.866 186.467 293.022C189.036 274.204 189.067 273.864 188.665 269.778C187.798 260.741 184.796 253.839 179.565 248.856C175.851 245.328 171.983 243.347 167.247 242.604C164.988 242.233 161.614 242.233 159.479 242.573ZM148.863 285.006C146.882 304.721 146.635 308.435 147.13 312.52C147.625 316.513 151.401 343.563 151.958 347.122C152.515 350.495 153.444 352.507 155.208 354.117C157.312 356.005 158.953 356.623 162.017 356.623C164.059 356.623 164.988 356.469 166.071 355.974C168.052 355.045 169.971 353.25 170.899 351.393C172.385 348.484 172.416 349.01 168.516 316.543C167.866 311.251 167.619 308.032 167.743 306.794C168.114 303.018 172.478 277.516 173.623 272.285C174.056 270.366 174.056 270.645 173.932 277.237C173.778 284.418 173.53 287.451 171.89 299.831C171.178 305.092 170.961 307.816 171.085 309.735C171.147 311.189 172.168 320.226 173.313 329.821C175.263 346.039 175.387 347.431 175.047 349.165C174.149 353.528 171.766 356.685 167.959 358.542C165.638 359.688 165.545 359.718 162.048 359.718C158.767 359.718 158.303 359.657 156.632 358.852C154.279 357.769 152.422 356.252 151.215 354.426C149.204 351.393 149.482 352.879 144.84 319.731C143.509 310.168 143.447 306.516 144.53 297.664C145.366 290.7 146.789 281.632 147.78 277.175C148.616 273.338 150.349 267.179 150.473 267.55C150.534 267.736 149.823 275.566 148.863 285.006Z" fill="black"/>
</svg>
