<svg width="1378" height="494" viewBox="0 0 1378 494" fill="none" xmlns="http://www.w3.org/2000/svg">
<path d="M397.69 128.8V0H429.69L478.29 68.2V0H515.89V128.8H483.69L435.29 60.8V128.8H397.69Z" fill="#F5A623"/>
<path d="M533.823 128.8V0H631.423V28.8H571.423V49.8H624.023V79H571.423V100H631.423V128.8H533.823Z" fill="#F5A623"/>
<path d="M669.394 128.8L639.394 0H676.194L690.794 68.2L704.994 19.4V0H735.794L755.394 68.4L770.794 0H807.594L777.794 128.8H743.794L724.394 62.2L703.394 128.8H669.394Z" fill="#F5A623"/>
<path d="M393.69 309.8L443.09 181H482.89L532.29 309.8H493.09L482.29 282.4H443.49L432.89 309.8H393.69ZM448.49 255.4H477.29L462.89 217.6L448.49 255.4Z" fill="#00C0FF"/>
<path d="M546.323 309.8V181H582.923L614.923 246.4L646.723 181H683.123V309.8H645.523V245.4L624.923 287.8H604.723L583.923 245.4V309.8H546.323Z" fill="#00C0FF"/>
<path d="M701.206 309.8V181H798.806V209.8H738.806V230.8H791.406V260H738.806V281H798.806V309.8H701.206Z" fill="#00C0FF"/>
<path d="M810.776 309.8V181H877.776C888.31 181 896.91 182.933 903.576 186.8C910.376 190.667 915.443 196.067 918.776 203C922.11 209.8 923.776 217.733 923.776 226.8C923.776 235.467 921.576 243.133 917.176 249.8C912.91 256.333 907.176 261.333 899.976 264.8C901.443 266 902.71 267.467 903.776 269.2C904.843 270.8 906.043 273.067 907.376 276L922.176 309.8H882.976L869.376 278.8C868.31 276.4 866.976 274.733 865.376 273.8C863.91 272.733 861.776 272.2 858.976 272.2H848.376V309.8H810.776ZM848.376 243.4H868.176C873.643 243.4 877.843 242 880.776 239.2C883.843 236.267 885.376 232.133 885.376 226.8C885.376 215.467 880.043 209.8 869.376 209.8H848.376V243.4Z" fill="#00C0FF"/>
<path d="M937.729 309.8V181H975.329V309.8H937.729Z" fill="#00C0FF"/>
<path d="M1061.19 311.8C1037.86 311.8 1020.06 306.067 1007.79 294.6C995.527 283.133 989.394 266.933 989.394 246C989.394 224.4 995.394 207.867 1007.39 196.4C1019.39 184.8 1037.26 179 1060.99 179C1068.99 179 1076.13 179.6 1082.39 180.8C1088.66 182 1094.66 183.667 1100.39 185.8V218.6C1088.93 213.533 1076.66 211 1063.59 211C1051.46 211 1042.46 213.8 1036.59 219.4C1030.73 224.867 1027.79 233.733 1027.79 246C1027.79 258 1030.86 266.667 1036.99 272C1043.26 277.2 1052.26 279.8 1063.99 279.8C1070.39 279.8 1076.59 279.2 1082.59 278C1088.73 276.8 1094.79 274.933 1100.79 272.4V305.4C1095.06 307.4 1088.99 308.933 1082.59 310C1076.33 311.2 1069.19 311.8 1061.19 311.8Z" fill="#00C0FF"/>
<path d="M1106.97 309.8L1156.37 181H1196.17L1245.57 309.8H1206.37L1195.57 282.4H1156.77L1146.17 309.8H1106.97ZM1161.77 255.4H1190.57L1176.17 217.6L1161.77 255.4Z" fill="#00C0FF"/>
<path d="M1259.6 309.8V181H1291.6L1340.2 249.2V181H1377.8V309.8H1345.6L1297.2 241.8V309.8H1259.6Z" fill="#00C0FF"/>
<path d="M465.49 491.8C442.157 491.8 424.357 486.067 412.09 474.6C399.824 463.133 393.69 446.933 393.69 426C393.69 404.4 399.69 387.867 411.69 376.4C423.69 364.8 441.557 359 465.29 359C473.29 359 480.424 359.6 486.69 360.8C492.957 362 498.957 363.667 504.69 365.8V398.6C493.224 393.533 480.957 391 467.89 391C455.757 391 446.757 393.8 440.89 399.4C435.024 404.867 432.09 413.733 432.09 426C432.09 438 435.157 446.667 441.29 452C447.557 457.2 456.557 459.8 468.29 459.8C474.69 459.8 480.89 459.2 486.89 458C493.024 456.8 499.09 454.933 505.09 452.4V485.4C499.357 487.4 493.29 488.933 486.89 490C480.624 491.2 473.49 491.8 465.49 491.8Z" fill="#F5A623"/>
<path d="M519.175 489.8V361H616.775V389.8H556.775V410.8H609.375V440H556.775V461H616.775V489.8H519.175Z" fill="#F5A623"/>
<path d="M628.745 489.8V361H660.745L709.345 429.2V361H746.945V489.8H714.745L666.345 421.8V489.8H628.745Z" fill="#F5A623"/>
<path d="M793.078 489.8V389H756.878V361H866.878V389H830.678V489.8H793.078Z" fill="#F5A623"/>
<path d="M936.792 491.8C924.792 491.8 914.192 489.867 904.992 486C895.925 482 888.792 476.2 883.592 468.6C878.392 460.867 875.792 451.4 875.792 440.2V361H913.392V436.2C913.392 451.933 921.192 459.8 936.792 459.8C944.259 459.8 949.992 457.867 953.992 454C957.992 450.133 959.992 444.2 959.992 436.2V361H997.592V440.2C997.592 451.4 994.992 460.867 989.792 468.6C984.725 476.2 977.592 482 968.392 486C959.325 489.867 948.792 491.8 936.792 491.8Z" fill="#F5A623"/>
<path d="M1014.68 489.8V361H1081.68C1092.22 361 1100.82 362.933 1107.48 366.8C1114.28 370.667 1119.35 376.067 1122.68 383C1126.02 389.8 1127.68 397.733 1127.68 406.8C1127.68 415.467 1125.48 423.133 1121.08 429.8C1116.82 436.333 1111.08 441.333 1103.88 444.8C1105.35 446 1106.62 447.467 1107.68 449.2C1108.75 450.8 1109.95 453.067 1111.28 456L1126.08 489.8H1086.88L1073.28 458.8C1072.22 456.4 1070.88 454.733 1069.28 453.8C1067.82 452.733 1065.68 452.2 1062.88 452.2H1052.28V489.8H1014.68ZM1052.28 423.4H1072.08C1077.55 423.4 1081.75 422 1084.68 419.2C1087.75 416.267 1089.28 412.133 1089.28 406.8C1089.28 395.467 1083.95 389.8 1073.28 389.8H1052.28V423.4Z" fill="#F5A623"/>
<path d="M1170.95 489.8V442.6L1124.55 361H1163.75L1189.75 409.6L1215.75 361H1254.95L1208.55 442.6V489.8H1170.95Z" fill="#F5A623"/>
<path d="M124.394 20.6817L122.901 20.8206L122.832 49.2893L122.728 77.7579L120.541 78.6259C109.5 83.0698 100.508 92.027 95.995 103.102C92.0719 112.823 91.69 123.516 94.9188 134.001C96.0645 137.612 97.8351 141.222 100.404 145.111L102.383 148.062L100.994 151.707C100.231 153.686 99.2932 156.082 98.946 157.054C98.5989 157.991 97.2796 161.428 96.0297 164.657C94.7799 167.886 93.7384 170.663 93.7384 170.802C93.7384 170.976 93.3565 171.948 92.8704 172.989C92.3844 174.031 92.0025 175.003 92.0025 175.107C92.0025 175.246 91.7594 175.836 91.4817 176.426C91.0651 177.398 89.1209 182.398 87.6627 186.39C87.4197 187.05 86.274 190.105 85.0936 193.16C83.9132 196.215 82.5245 199.791 82.0384 201.145C81.5524 202.465 80.8927 204.201 80.5455 204.964C80.1984 205.728 79.1221 208.471 78.1847 211.04C77.2126 213.609 75.9281 216.977 75.3379 218.504C74.7477 220.032 73.8103 222.532 73.2548 224.059C72.734 225.587 71.7966 228.086 71.1717 229.614C70.5468 231.142 69.7136 233.329 69.2622 234.475C68.3248 236.94 63.881 248.813 61.2771 255.652C56.486 268.359 53.7086 275.546 53.2573 276.483C52.7018 277.525 47.2511 292.141 44.2653 300.439C43.3627 302.904 42.1128 306.271 41.4879 307.903C40.863 309.535 38.3633 316.166 35.933 322.658C33.5028 329.15 31.1767 335.261 30.7253 336.233C30.274 337.205 28.9547 340.468 27.809 343.524C25.726 349.113 21.4904 360.258 17.1854 371.437C15.9008 374.77 12.4637 383.831 9.51271 391.573C6.5964 399.315 3.26348 408.099 2.08307 411.154L0 416.639V455.315C0 476.597 0.138872 493.991 0.277743 493.991C0.451333 493.991 0.972101 493.019 1.49287 491.804C2.49969 489.373 5.38128 482.708 5.90204 481.666C7.08245 479.132 18.2616 453.44 21.8376 445.039C23.018 442.261 24.372 439.206 24.858 438.199C25.3094 437.227 25.6913 436.324 25.6913 436.255C25.6913 436.151 26.3162 434.762 27.0453 433.165C27.7743 431.603 29.6144 427.471 31.0725 424.034C32.5654 420.597 34.0583 417.125 34.4054 416.327C34.7873 415.528 35.0651 414.799 35.0651 414.73C35.0651 414.626 35.69 413.237 36.4191 411.64C37.6342 409.001 40.863 401.641 45.1333 391.747C46.5914 388.379 50.5146 379.387 51.3825 377.512C51.5561 377.13 52.424 375.082 53.3267 372.999C54.2294 370.881 55.4098 368.208 55.9306 367.028C56.486 365.847 57.3193 363.868 57.84 362.688C58.3261 361.473 62.2492 352.446 66.5542 342.621C76.0322 320.887 74.956 323.352 76.8307 319.186C77.664 317.277 78.6708 314.985 79.018 314.083C79.3651 313.145 79.8512 312.416 80.0595 312.416C80.2678 312.416 81.4482 312.729 82.6286 313.111C87.6974 314.742 98.46 317.207 106.584 318.665C124.811 321.86 150.294 321.79 168.555 318.457C175.673 317.138 183.588 315.367 188.379 314.013C195.115 312.069 193.934 311.271 198.239 320.783C200.288 325.297 203.1 331.615 204.488 334.844C207.405 341.649 216.848 363.382 222.125 375.429C225.528 383.171 226.986 386.574 232.541 399.385C233.686 402.058 235.144 405.321 235.735 406.675C236.36 407.995 238.13 412.057 239.727 415.702C243.477 424.382 250.941 441.567 251.358 442.435C251.531 442.817 252.851 445.872 254.309 449.205C255.802 452.538 257.26 455.905 257.607 456.669C259.655 461.321 260.766 463.856 261.53 465.696C262.016 466.842 263.613 470.522 265.071 473.855C271.39 488.262 273.716 493.505 273.994 493.817C274.133 493.991 274.271 476.701 274.271 455.35V416.605L272.917 412.855C271.077 407.821 265.523 393.17 264.03 389.49C263.37 387.858 260.697 380.915 258.093 374.041C255.489 367.166 252.191 358.487 250.767 354.772C249.344 351.057 247.33 345.745 246.324 342.968C245.317 340.191 243.616 335.747 242.574 333.073C241.532 330.4 240.213 326.894 239.623 325.262C239.068 323.63 237.887 320.506 237.019 318.318C236.151 316.131 234.832 312.694 234.068 310.68C233.304 308.667 231.881 304.952 230.909 302.383C229.937 299.814 229.173 297.696 229.208 297.661C229.277 297.626 230.562 296.932 232.089 296.099C241.949 290.822 255.593 281.101 265.418 272.352C267.154 270.859 268.682 269.366 268.855 269.088C269.064 268.741 268.612 268.047 267.258 266.623C266.217 265.547 263.891 263.117 262.086 261.207C260.28 259.298 257.85 256.729 256.704 255.514L254.552 253.257L251.67 255.896C244.032 262.804 233.686 270.269 224.382 275.615L221.361 277.351L220.181 274.296C219.556 272.63 218.167 269.019 217.161 266.241C214.591 259.333 212.474 253.708 212.126 252.875C211.71 251.938 209.8 246.973 206.919 239.335C205.634 235.898 203.933 231.454 203.169 229.44C201.294 224.545 199.836 220.726 197.059 213.47C195.774 210.137 194.594 207.047 194.42 206.596C194.212 206.145 192.823 202.499 191.33 198.437C188.588 191.112 187.754 188.925 187.13 187.605C186.956 187.224 185.88 184.411 184.734 181.356C183.588 178.301 181.297 172.295 179.665 167.99C177.999 163.685 176.575 159.831 176.471 159.38C176.367 158.963 176.263 158.616 176.228 158.616C176.193 158.616 175.152 159.588 173.937 160.734C169.354 165.143 163.174 169.066 157.272 171.357C155.258 172.156 153.314 172.85 152.932 172.92C152.446 172.989 151.926 173.822 151.127 175.697C150.502 177.19 149.53 179.447 148.905 180.731C148.315 182.051 147.412 183.96 146.961 185.002C146.475 186.043 145.815 187.571 145.433 188.369C145.086 189.168 144.774 189.897 144.774 190.036C144.774 190.14 144.392 191.008 143.906 192.015C143.42 192.987 143.038 194.063 143.038 194.375C143.038 194.688 143.524 195.938 144.114 197.188C144.704 198.403 145.781 200.798 146.51 202.534C148.384 206.978 154.182 220.24 158.314 229.614C160.258 233.989 162.306 238.606 162.827 239.856C163.348 241.106 165.466 245.931 167.514 250.618C169.562 255.305 172.409 261.763 173.833 265.026C177.582 273.567 178.519 275.719 180.36 279.781C181.227 281.795 182.616 284.92 183.38 286.725C184.144 288.53 185.012 290.544 185.289 291.169C185.602 291.794 185.776 292.349 185.706 292.384C184.352 293.356 166.334 297.314 158.661 298.321C146.301 299.987 128.005 299.918 114.743 298.147C109.466 297.453 89.5375 293.044 88.9473 292.453C88.7043 292.21 89.9888 288.739 91.5511 285.371C92.4191 283.531 94.0855 279.781 95.3007 277.004C96.5158 274.227 98.8072 268.915 100.439 265.2C102.071 261.485 105.265 254.125 107.556 248.883C109.847 243.64 112.451 237.703 113.319 235.69C115.368 231.142 117.069 227.219 121.443 217.116C123.353 212.706 125.505 207.881 126.2 206.353C126.894 204.825 128.109 202.083 128.873 200.277C129.637 198.472 131.164 194.931 132.275 192.466C133.386 189.966 135.087 186.078 136.094 183.786C143.906 165.803 144.496 164.553 145.433 164.206C145.954 164.032 147.968 163.407 149.981 162.782C154.425 161.428 159.564 158.963 162.931 156.498C165.952 154.346 171.229 148.964 173.485 145.84C175.152 143.479 178.207 137.75 178.763 135.91C181.505 126.745 182.095 121.676 181.227 114.003C179.492 98.6928 168.417 84.4932 153.523 78.4176L151.37 77.5496V20.8553L150.606 20.7164C149.634 20.5428 126.408 20.5081 124.394 20.6817ZM144.079 98.9012C149.565 100.741 154.46 105.22 157.168 110.809C158.244 113.031 159.355 117.718 159.355 120.149C159.355 123.586 158.14 128.029 156.126 131.779C154.738 134.418 150.919 137.889 147.135 139.972C142.413 142.576 135.886 143.201 130.678 141.465C126.338 140.077 122.346 137.195 119.43 133.376C118.249 131.883 116.895 129.21 116.097 126.849C115.298 124.488 115.159 123.481 115.125 120.253C115.125 116.954 115.263 116.017 116.097 113.517C117.069 110.532 119.187 106.921 121.131 104.942C124.186 101.748 128.456 99.2136 132.102 98.4151C135.504 97.6513 141.094 97.8943 144.079 98.9012Z" fill="white"/>
</svg>
