<svg xmlns="http://www.w3.org/2000/svg" viewBox="346 329 317 366" preserveAspectRatio="xMidYMid meet">
  <g transform="translate(0,1024) scale(0.1,-0.1)" fill="#1f3df0">
    <path d="M5180 6844 c-14 -2 -59 -9 -100 -15 -475 -67 -923 -363 -1208 -796 -152 -232 -256 -522 -298 -833 -18 -136 -18 -415 0 -560 37 -295 116 -555 247 -811 53 -103 180 -302 248 -386 l41 -53 497 0 497 0 -90 61 c-309 211 -540 471 -697 785 -130 258 -192 498 -204 779 -29 702 348 1225 883 1225 130 0 189 -12 289 -60 138 -66 214 -150 275 -306 42 -105 71 -148 123 -178 158 -93 340 15 349 206 2 32 5 58 7 58 1 0 26 -21 54 -46 63 -57 115 -84 175 -91 111 -13 205 51 237 162 21 70 16 140 -16 232 -92 274 -468 535 -876 609 -83 15 -379 28 -433 18z"/>
    <path d="M4836 6064 c-90 -22 -189 -79 -247 -142 -95 -104 -185 -325 -225 -552 -20 -113 -23 -357 -5 -475 18 -120 64 -287 111 -405 200 -508 682 -928 1230 -1075 93 -25 101 -25 458 -25 l362 0 0 144 0 143 -137 6 c-459 20 -864 203 -1183 533 -215 223 -347 472 -411 774 -30 139 -32 400 -6 533 36 178 112 364 203 495 l43 62 -67 -1 c-37 0 -93 -7 -126 -15z"/>
    <path d="M5195 5963 c-52 -72 -130 -227 -159 -321 -117 -373 -47 -787 189 -1117 275 -384 710 -605 1193 -605 l102 0 0 143 0 143 -117 11 c-158 16 -295 53 -429 117 -144 69 -219 120 -328 226 -153 148 -256 324 -314 539 -23 85 -26 115 -26 261 0 146 3 176 26 261 14 52 40 123 57 157 17 34 31 68 31 75 0 23 -152 157 -178 157 -7 0 -28 -21 -47 -47z"/>
  </g>
</svg>
